M48
; DRILL file {KiCad 9.0.6-9.0.6~ubuntu24.04.1} date 2026-01-02T15:19:55+0100
; FORMAT={-:-/ absolute / metric / decimal}
; #@! TF.CreationDate,2026-01-02T15:19:55+01:00
; #@! TF.GenerationSoftware,Kicad,Pcbnew,9.0.6-9.0.6~ubuntu24.04.1
; #@! TF.FileFunction,Plated,1,2,PTH
FMAT,2
METRIC
; #@! TA.AperFunction,Plated,PTH,ComponentDrill
T1C1.000
; #@! TA.AperFunction,Plated,PTH,ComponentDrill
T2C1.300
%
G90
G05
T1
X99.96Y-111.5
X102.5Y-111.5
X105.04Y-111.5
X111.8Y-105.0
X113.46Y-48.5
X113.46Y-111.5
X114.34Y-105.0
X116.0Y-48.5
X116.0Y-111.5
X116.88Y-105.0
X118.54Y-48.5
X118.54Y-111.5
X119.42Y-105.0
X120.94Y-56.74
X121.08Y-48.5
X121.96Y-105.0
X123.48Y-56.74
X124.5Y-105.0
X126.02Y-56.74
X127.04Y-105.0
X128.56Y-56.74
X129.58Y-105.0
X130.69Y-48.5
X131.1Y-56.74
X132.12Y-105.0
X133.23Y-48.5
X133.64Y-56.74
X134.66Y-105.0
X135.77Y-48.5
X136.18Y-56.74
X138.31Y-48.5
X138.72Y-56.74
X138.72Y-105.0
X141.26Y-105.0
X141.96Y-114.26
X141.96Y-116.8
X141.96Y-119.34
X141.96Y-121.88
X141.96Y-124.42
X141.96Y-126.96
X141.96Y-129.5
X141.96Y-132.04
X143.8Y-56.74
X143.8Y-105.0
X144.5Y-114.26
X144.5Y-116.8
X144.5Y-119.34
X144.5Y-121.88
X144.5Y-124.42
X144.5Y-126.96
X144.5Y-129.5
X144.5Y-132.04
X146.34Y-56.74
X146.34Y-105.0
X148.88Y-56.74
X148.88Y-105.0
X149.38Y-48.5
X151.42Y-56.74
X151.42Y-105.0
X151.92Y-48.5
X153.96Y-56.74
X153.96Y-105.0
X154.46Y-48.5
X156.5Y-56.74
X156.5Y-105.0
X157.0Y-48.5
T2
X127.5Y-121.0
X132.5Y-121.0
X155.868Y-113.0
X155.868Y-118.0
X156.368Y-126.5
X156.368Y-131.5
M30
